<?xml version="1.0" encoding="utf-8"?>
<!-- Generator: Adobe Illustrator 19.2.1, SVG Export Plug-In . SVG Version: 6.00 Build 0)  -->
<svg version="1.1" id="Layer_1" xmlns="http://www.w3.org/2000/svg" xmlns:xlink="http://www.w3.org/1999/xlink" x="0px" y="0px"
	 viewBox="0 0 320 90" style="enable-background:new 0 0 320 90;" xml:space="preserve">
<style type="text/css">
	.st0{fill:#FFFFFF;}
</style>
<g>
	<path class="st0" d="M60.4,43c0,18-11.7,26.1-28.9,26.1S2.7,61,2.7,43V2.1h17.5V40c0,8.7,2.4,16,11.3,16c9,0,11.3-7.4,11.3-16V2.1
		h17.5V43z"/>
	<path class="st0" d="M65.1,2.1h20.9c20.1,0,29.5,6.8,29.5,21.6c0,13.3-9.7,21.2-26.1,21.2h-6.8v23H65.1V2.1z M82.7,32.5h4.5
		c6,0,10.9-2.2,10.9-9.1c0-6.7-4.8-8.9-10.9-8.9h-4.5V32.5z"/>
	<path class="st0" d="M163.2,1.7h-35L105,67.9h25.3l4.1-14.3h21.4l4.4,14.3h26.7L163.2,1.7z M168.8,31.9l-0.8,0.9
		c0,0-0.4,0.4-0.8,0.8c-0.4,0.4-1.2,0.9-1.3,1.2c-0.1,0.3-1,1.4-1.2,1.7c-0.2,0.2-2,2-2,2l-0.5,0.4c0,0-0.5,0.7-0.9,1
		c-0.4,0.3-1.1,0.9-1.3,1c-0.2,0.1-1,0.6-1.5,1.1c-0.5,0.5-1.2,1.1-1.2,1.1l-0.8,0.5l-0.6,0.3l-0.3,0.3c0,0-1.5,0.3-2.1,0.7
		c-0.7,0.4-0.8,0.4-0.8,0.4s-0.3,0-0.5,0.1c-0.1,0.1-1.5,1-1.7,1.1c-0.1,0.1-0.4,0.3-0.4,0.3l-0.8,0.6c0,0-0.5,0.4-0.7,0.5
		c-0.2,0.1-1.5,1.1-1.5,1.1s-0.3,0.4-0.5,0.5c-0.2,0.1-0.7,0.2-0.7,0.2l-0.3-0.2l-0.2,0.1c0,0-0.2,0-0.4,0c-0.2-0.1-0.7-0.6-1.1-0.7
		c-0.4-0.1-1-0.5-1-0.5s-0.4-0.4-1.2-0.9c-0.8-0.5-2-1.3-3-2.7c-1-1.4-1.3-1.8-1.3-1.8l-0.2-0.5c0,0-1.1-1-1.3-1.4
		c-0.3-0.4-0.3-0.5-0.5-0.7c-0.2-0.2-1-0.7-1-0.9c0-0.1-0.2-0.5-0.2-0.5s-0.3,0.1-1.1-0.2c-0.8-0.4-1-0.4-1.2-0.7
		c-0.2-0.3-0.7-0.9-0.8-1c-0.1-0.1-0.3-0.5-0.3-0.5l-0.2-0.3l-0.5-0.1l-0.3-0.4l-0.5-0.3l-0.4-0.4l-0.4,0c0,0-0.7-0.7-1.1-1.1
		c-0.4-0.3-0.6-0.7-0.6-0.7l-1.1-1.3l-1.1-1.2l-0.2-0.5l-0.5-0.4c0,0-0.5-0.1-0.6-0.2c-0.1-0.1-0.4-0.2-0.6-0.4
		c-0.2-0.2-0.4-0.4-0.4-0.4v-0.3c0,0,0.1-1,1.1-1.5c0.9-0.5,1.4-0.9,1.4-0.9s0.6,0.2,0.8-0.1c0.2-0.3,2.7-2.6,3.8-3.3
		c1.1-0.7,1.8-1.2,2.2-1.5c0.4-0.3,1.3-0.8,1.7-1.1c0.4-0.3,1.2-0.6,1.2-0.6L135,19l0.5,0l1.4-1.2l0.6-0.2l0.7,0c0,0,1.5-1.1,2-1.6
		c0.5-0.5,0.6-0.4,0.8-0.5c0.2-0.1,0.7,0.1,1-0.2c0.3-0.3,0.9-1.2,0.9-1.2s1.1-0.7,1.4-1.1c0.4-0.4,0.7-0.2,1.3-0.6
		c0.7-0.4,1.5-0.6,1.8-0.7c0.2-0.1,0.5-0.3,0.9-0.2c0.4,0.1,2.1,2.7,3.3,3.6c1.3,0.8,3.6,2.1,4.5,2.6c0.9,0.6,1.4,1,1.6,1.2
		c0.2,0.2,0.8,0.6,0.8,0.6l0.6,0.6l1.3,1.1l0.5,0.8l0.7,0.5l0.8,0.7c0,0,1.2,0.8,1.9,1.5c0.7,0.8,0.9,1.2,1.6,1.8
		c0.7,0.6,1.5,0.9,1.7,1.3c0.3,0.3,0.8,1,0.8,1l0.2,0.4l0.6,0.5l0.4,0.6c0,0,0.2,0.4,0,0.7C169.5,31.3,168.8,31.9,168.8,31.9"/>
	<path class="st0" d="M156.5,28.5c-0.1-0.2-0.3-0.9-0.4-1.4c-0.1-0.5-0.8-1.8-1.2-2.3c-0.3-0.5-1.2-1.1-1.2-1.1s-1.1-1.2-1.2-1.4
		c-0.1-0.2-0.8-0.4-0.8-0.4s-0.8-0.6-1.3-0.9c-0.4-0.3-0.6-0.2-1.5-0.5c-1-0.3-3.3,0.4-3.9,0.6c-0.7,0.1-1.3,0.1-1.6,0.1
		c-0.3,0-1.2,0.3-1.2,0.3s-0.7,0.2-1.2,0.5c-0.4,0.3-1,0.9-1.3,1.1c-0.3,0.2-0.4,0.1-0.4,0.1s-0.8,0.7-1.3,1c-0.5,0.4-0.9,1-1.4,1.6
		c-0.4,0.5-0.7,1.8-0.9,2.5c0.2-0.1,0.1,0,0.4-0.1c0.4-0.1,0.5-0.1,0.8-0.3c0.3-0.1,1-0.9,1-0.9s0.7-0.2,1.1-0.4
		c0.5-0.2,2.5-1.1,2.7-1.1c0.2,0,0.5,0,0.7,0c0.2,0,0.8,0,1-0.1c0.2,0,0.9-0.1,1.3-0.2c0.4-0.1,1.2-0.1,1.8,0c0.6,0,1.4,1,1.9,1.1
		c0.5,0.1,0.9,0.2,1.1,0.3c0.2,0.1,0.7,0.4,1.2,0.6c0.5,0.1,0.8,0.5,1.2,0.7c0.4,0.2,0.9,0.4,0.9,0.4s0.3,0.2,0.7,0.5
		c0.3,0.2,1.5,1.4,1.5,1.4l0.4,0.1c0,0,0.6,0.5,1.1,0.9c0.1,0.1,0.2,0.2,0.3,0.2c0-0.4,0-0.3,0.1-1
		C156.9,29.6,156.7,28.7,156.5,28.5 M153.4,25.1c-0.1,0.2-0.6,0.6-0.7,0.7c-0.1,0.1,0,0.6,0,0.8c0,0.2-0.1,0.2-0.2,0.2
		c-0.1,0.1-0.2-0.1-0.3-0.1c-0.1,0-0.3-0.2-0.5-0.5c-0.2-0.3-0.4-0.4-0.5-0.4c-0.1,0-0.5,0.3-0.7,0.4c-0.2,0.1-0.5,0.2-0.6,0.2
		c-0.1,0-0.2-0.1-0.2-0.2c0-0.1,0-0.5,0-0.5s0.1-0.7,0.1-0.8c0.1-0.2-0.6-0.7-0.7-0.9c-0.1-0.2-0.2-0.3-0.1-0.5
		c0.1-0.2,0.5-0.1,0.6-0.1c0.2,0,0.9,0,1-0.1c0.1,0,0.6-0.5,0.7-0.6c0.1-0.1,0.2-0.1,0.4-0.1c0.1,0,0.4,1.1,0.4,1.1s0.8,0.3,0.9,0.4
		c0.1,0.1,0.6,0.3,0.7,0.5C153.7,24.7,153.6,24.9,153.4,25.1"/>
	<path class="st0" d="M154.5,32.3c-0.8-0.5-1.4-1.2-1.9-1.5c-0.5-0.3-1.1-0.8-1.3-0.9c-0.2-0.2-1.1-0.4-1.7-0.6
		c-0.6-0.1-1.5-0.4-1.6-0.4c-0.2,0-0.8-0.3-1.6-0.8c-0.8-0.5-1.8-0.3-2.2-0.2c-0.5,0.1-0.8,0.2-1.4,0.2c-0.6,0-0.9,0-1.8,0.1
		c-0.9,0.1-1.5,0.8-1.9,1.3c-0.4,0.4-0.3,0.3-0.9,0.4c-0.6,0.1-0.6,0.1-1.1,0.2c-0.5,0.1-0.5,0.1-1.2,0.4c-0.2,0.1-0.4,0.1-0.5,0.2
		v0.7c0.1,0.3,0.3,0.4,0.8,0.8c0.5,0.4,0.8,1.7,1,2c0.2,0.3,0.6,0.5,1.1,1c0.5,0.5,1.2,1.7,1.6,1.9c0.4,0.1,0.8,0.1,0.9,0.2
		c0.2,0.1,1.6,0.8,1.9,0.9c0.3,0.1,0.8,0.3,0.8,0.3s1.1,0.2,2.5,0.1c1.5,0,2-0.2,2.4-0.5c0.4-0.2,0.6,0,0.6,0s0.3-0.1,0.9-0.3
		c0.6-0.2,0.4-0.2,0.8-0.3c0.4-0.1,1.1,0,1.5-0.1c0.4-0.1,1.2-0.8,1.6-1.5c0.4-0.6,0.6-1.1,1-1.8c0.5-0.8,0.8-1,1-1.2
		c0,0,0.1-0.1,0.1-0.1C155.5,32.9,154.9,32.6,154.5,32.3 M139.3,33.5c-0.3,0.2-0.2,0.3-0.3,0.3c0,0,0,0,0,0h0
		c-0.1,0-0.1-0.1-0.3-0.1c0,0-0.1,0-0.1,0c-0.1,0-0.2,0-0.2-0.2c-0.1-0.2-0.1-0.2-0.3-0.4c-0.1-0.2,0.3-0.3,0.3-0.3
		c0.1-0.1,0.3-0.3,0.4-0.4c0,0,0.1,0,0.1,0c0.1,0,0.2,0.3,0.3,0.4c0.1,0.2,0.3,0.1,0.4,0.3C139.8,33.2,139.6,33.3,139.3,33.5
		 M143.8,36.9c-0.2,0.1-0.2,0.2-0.3,0.1c-0.1,0-0.3-0.4-0.5-0.4c-0.2-0.1-0.3-0.4-0.2-0.4c0.1-0.1,0.4-0.1,0.4-0.1s0.3-0.4,0.5-0.1
		c0.1,0.3,0.3,0.6,0.3,0.6S144,36.8,143.8,36.9 M144,32.9c0,0-0.6-0.3-0.7-0.6c-0.1-0.2-0.3-0.1-0.4-0.1c-0.1,0-0.1-0.3-0.1-0.4
		c0-0.1-0.4-0.2-0.4-0.2s-0.2,0.4-0.6,0.5c-0.4,0.2-0.6-0.9-0.6-0.9s-0.8-0.3-0.8-0.5c0-0.1,0.2-0.3,0.7-0.5
		c0.5-0.2,0.4-0.7,0.8-0.9c0.3-0.1,0.6,0.6,0.7,0.7c0.2,0,0.8,0.3,0.8,0.3s-0.1,0.2-0.4,0.4c-0.3,0.2,0,0.4,0,0.4s0.1,0.1,0.2,0.1
		c0.1,0,0.5-0.3,0.6-0.4c0.1-0.1,0.2,0.1,0.3,0.1c0.1,0.1,0,0.8,0.2,0.8c0.3,0,0.2,0.6,0.2,0.6s-0.1,0-0.3,0.1
		C144.1,32.7,144,32.9,144,32.9 M145.9,33.9c0,0-0.2,0.3-0.3,0.5c-0.1,0.1-0.3-0.1-0.4-0.2c-0.2-0.1-0.4,0.1-0.6-0.1
		c-0.2-0.1-0.1-0.2-0.1-0.3c0-0.1,0.3-0.1,0.4-0.2c0.1-0.1,0.2-0.4,0.5-0.6c0.3-0.2,0.4,0.2,0.5,0.2c0.1,0,0.3,0.1,0.3,0.4
		C146.1,33.8,145.9,33.9,145.9,33.9 M146.1,30.8c0,0.2-0.3,0-0.4,0c-0.1,0-0.2,0.2-0.5,0.2c-0.3,0-0.3-0.2-0.6-0.6
		c-0.3-0.4-0.2-0.3-0.2-0.5c0-0.2,0.3-0.1,0.5-0.2c0.1,0,0.2-0.5,0.5-0.5c0.3,0,0.4,0.4,0.4,0.6c0,0.2,0.2,0.2,0.4,0.3
		C146.6,30.2,146.1,30.4,146.1,30.8 M147.2,32.2c-0.2-0.3-0.3,0-0.6-0.4c-0.3-0.4,0-0.2,0.1-0.4c0.1-0.1,0.5-0.2,0.5-0.2
		s0.4-0.4,0.6-0.4c0.2,0,0.3,0.5,0.4,0.6c0,0.1,0.2,0.1,0.3,0.5c0.1,0.3-0.4,0.4-0.4,0.4s-0.3,0.4-0.5,0.4
		C147.4,32.7,147.4,32.5,147.2,32.2 M149.4,34.2c-0.1,0.1-0.4,0.3-0.4,0.3s-0.2,0-0.2,0.2c-0.1,0.2-0.1,0.4-0.1,0.4s-0.3,0-0.4-0.3
		c-0.1-0.3-0.2-0.1-0.3-0.3c-0.1-0.1,0-0.2,0-0.4c0-0.2,0-0.4,0-0.4l0.4-0.1l0.2-0.4c0,0,0.2-0.1,0.3,0.1c0.1,0.2,0.1,0.4,0.2,0.4
		c0.1,0,0.5,0.1,0.5,0.2C149.5,34.1,149.6,34.1,149.4,34.2 M153.2,33.5c0,0.1-0.3,0.5-0.5,0.6c-0.2,0.1-0.3,0.7-0.3,0.8
		c0,0.1-0.1,0.1-0.3,0.1c-0.2,0-0.4-0.6-0.4-0.6s-0.4,0.2-0.6,0.4c-0.2,0.1-0.2,0-0.3-0.1c0-0.1-0.1-0.6-0.1-0.7
		c0-0.1-0.1-0.3-0.1-0.3c0-0.1-0.3-0.4-0.3-0.4s-0.1-0.1,0-0.3c0.1-0.2,0.2-0.1,0.2-0.1l0.7,0c0,0,0.3-0.6,0.4-0.6
		c0-0.1,0.2-0.1,0.3-0.1c0.1,0,0.4,0.8,0.4,0.9c0,0.1,0.7,0.1,0.8,0.2C153.3,33.2,153.2,33.4,153.2,33.5"/>
	<path class="st0" d="M229,58.8h-29.3l1.9-1.7c2.7-2.3,5.7-5,8.2-7.5l0.2-0.2c7.5-7.5,18.9-18.9,18.9-30c0-11.8-8.6-19.4-22-19.4
		c-5.6,0-11.4,1.3-17.4,3.9l-0.5,0.2l0.1,0.6l0.9,8l0.1,1.1l1-0.5c2.2-1.2,8.1-4.1,14.6-4.1c6.8,0,11.8,4,11.8,9.6
		c0,10-10.8,20.1-18,26.8l-0.5,0.5c-3.1,2.9-6.3,5.7-9.2,8.2l-2.5,2.2l-0.3,0.2c0,0,0,0.3,0,0.3v10v0.8h0.8H229h0.8v-0.8v-7.7v-0.8
		H229z M190.6,55.5c2.8-2.5,6-5.3,9.2-8.3l0.5-0.5c7.4-6.9,18.5-17.3,18.5-27.9c0-6.5-5.6-11.1-13.3-11.1c-6,0-11.5,2.3-14.3,3.8
		l-0.7-6.4c5.6-2.4,11.1-3.6,16.3-3.6c12.4,0,20.5,7,20.5,17.9c0,10.4-11.6,22-18.5,28.9l-0.2,0.2c-2.5,2.5-5.5,5.1-8.1,7.4l-3.4,3
		l-1.5,1.3c0,0,2,0,2,0h30.6v6.1h-39.8v-8.9L190.6,55.5z"/>
	<path class="st0" d="M249.1,1.1l-0.2,0.4l-26.4,42.8l-0.1,0.2V55h41.3V1.1H249.1z M262.2,53.5h-38.2v-8.6l26-42.2h12.2V53.5z
		 M230.6,46.7h23.7V8.8h-1.4l-0.2,0.4l-21.5,36.4L230.6,46.7z M252.8,12v33.1h-19.5L252.8,12z"/>
	<path class="st0" d="M298.5,17.6c-6.1,0-11.3,2.4-14.8,6.6V1.8V1H283h-8.8h-0.8v0.8v65.4v0.8h0.8h8.8h0.8v-0.8V45.1
		c0-7,1.8-18.9,13.7-18.9c6.8,0.4,9.3,4.8,9.3,16.3v24.7v0.8h0.8h8.8h0.8v-0.8V38.8C317.1,24.9,310.7,17.6,298.5,17.6 M297.5,24.7
		c-9.7,0-15.3,7.4-15.3,20.4v21.3h-7.3V2.5h7.3v23.8v0.8h0.8h0.2h0.4l0.2-0.4c3-4.8,8.4-7.6,14.7-7.6c11.3,0,17.1,6.6,17.1,19.7
		v27.6h-7.3V42.5C308.3,33.6,307,25.3,297.5,24.7"/>
	<polygon class="st0" points="274.3,45.2 263.7,45.2 263.7,34.8 252.8,34.8 252.8,45.2 242.3,45.2 242.3,55 252.8,55 252.8,68 
		263.7,68 263.7,55 274.3,55 	"/>
	<path class="st0" d="M12.3,84.2c0,1.5-0.1,2.3-0.6,3.4C11,88.9,9.7,90,7.5,90c-2.2,0-3.6-1.1-4.2-2.4c-0.5-1.1-0.6-1.9-0.6-3.4
		v-9.7h1.9v10c0,2.4,1.1,3.9,2.9,3.9c1.8,0,2.9-1.5,2.9-3.9v-10h1.9V84.2z"/>
	<polygon class="st0" points="15.8,74.5 18.2,74.5 24,87.2 24,87.2 24,74.5 25.8,74.5 25.8,89.8 23.5,89.8 17.7,77.3 17.6,77.3 
		17.6,89.8 15.8,89.8 	"/>
	<rect x="29.4" y="74.5" class="st0" width="1.9" height="15.3"/>
	<path class="st0" d="M34.6,74.5h3.3c2,0,3.2,0.5,4.1,1.1c1.4,0.9,2.8,2.9,2.8,6.3c0,4.4-2.1,7.9-7.9,7.9h-2.4V74.5z M36.5,88.2h1.2
		c3.4,0,5.1-2.3,5.1-6.2c0-3.2-1.4-5.8-5.1-5.8h-1.2V88.2z"/>
	<path class="st0" d="M52.9,74.5l5,15.3h-2l-1.2-4h-5.8l-1.2,4h-1.9l5.1-15.3H52.9z M54.2,84.2l-2.4-7.6h0l-2.4,7.6H54.2z"/>
	<path class="st0" d="M59.7,74.5H63c2,0,3.2,0.5,4.1,1.1c1.4,0.9,2.8,2.9,2.8,6.3c0,4.4-2.1,7.9-7.9,7.9h-2.4V74.5z M61.6,88.2h1.2
		c3.4,0,5.1-2.3,5.1-6.2c0-3.2-1.4-5.8-5.1-5.8h-1.2V88.2z"/>
	<polygon class="st0" points="72.7,74.5 79.8,74.5 79.8,76.2 74.6,76.2 74.6,81.1 79.6,81.1 79.6,82.7 74.6,82.7 74.6,88.2 
		80.1,88.2 80.1,89.8 72.7,89.8 	"/>
	<path class="st0" d="M88.2,74.5h3.3c2,0,3.2,0.5,4.1,1.1c1.4,0.9,2.8,2.9,2.8,6.3c0,4.4-2.1,7.9-7.9,7.9h-2.4V74.5z M90.1,88.2h1.2
		c3.4,0,5.1-2.3,5.1-6.2c0-3.2-1.4-5.8-5.1-5.8h-1.2V88.2z"/>
	<polygon class="st0" points="101.1,74.5 108.3,74.5 108.3,76.2 103,76.2 103,81.1 108,81.1 108,82.7 103,82.7 103,88.2 108.5,88.2 
		108.5,89.8 101.1,89.8 	"/>
	<path class="st0" d="M116.8,74.5h3.7c1.5,0,2.5,0.4,3.3,1.2c0.8,0.7,1.2,1.8,1.2,3.2c0,3-1.7,4.6-5,4.6h-1.3v6.4h-1.9V74.5z
		 M118.8,81.8h1.1c2.4,0,3.2-1.1,3.2-2.8c0-2.1-1.2-2.9-3.2-2.9h-1.1V81.8z"/>
	<path class="st0" d="M127.5,74.5h3.9c1.6,0,2.5,0.4,3.2,1.1c0.8,0.7,1.1,1.8,1.1,2.9c0,1.6-0.8,3.2-3,3.7v0
		c0.9,0.2,1.4,0.6,1.7,1.5l2.2,6.2h-2.1l-1.8-5.2c-0.4-1.3-1-1.8-2.4-1.8h-0.9v6.9h-1.9V74.5z M129.5,81.3h1.5
		c2.1,0,2.9-1.4,2.9-2.7c0-1.7-1.1-2.5-2.8-2.5h-1.5V81.3z"/>
	<path class="st0" d="M144.2,74.4c3.4,0,5.6,2.9,5.6,7.7c0,5.3-2.1,8-5.8,8c-3.4,0-5.6-2.9-5.6-7.7C138.4,77,140.6,74.4,144.2,74.4
		 M144,88.4c2,0,3.7-1.7,3.7-6.4c0-3.1-1-6.1-3.6-6.1c-2,0-3.7,1.7-3.7,6.4C140.5,85.4,141.4,88.4,144,88.4"/>
	<polygon class="st0" points="152.6,74.5 155,74.5 160.8,87.2 160.9,87.2 160.9,74.5 162.7,74.5 162.7,89.8 160.3,89.8 154.5,77.3 
		154.5,77.3 154.5,89.8 152.6,89.8 	"/>
	<polygon class="st0" points="168.4,76.2 164.9,76.2 164.9,74.5 173.9,74.5 173.9,76.2 170.4,76.2 170.4,89.8 168.4,89.8 	"/>
	<path class="st0" d="M180.3,74.4c3.4,0,5.6,2.9,5.6,7.7c0,5.3-2.1,8-5.8,8c-3.4,0-5.6-2.9-5.6-7.7C174.5,77,176.6,74.4,180.3,74.4
		 M180.1,88.4c2,0,3.7-1.7,3.7-6.4c0-3.1-1-6.1-3.6-6.1c-2,0-3.7,1.7-3.7,6.4C176.5,85.4,177.5,88.4,180.1,88.4"/>
	<path class="st0" d="M198.6,74.5l5,15.3h-2l-1.2-4h-5.8l-1.2,4h-1.9l5.1-15.3H198.6z M199.9,84.2l-2.4-7.6h0l-2.4,7.6H199.9z"/>
	<polygon class="st0" points="206.9,76.2 203.4,76.2 203.4,74.5 212.3,74.5 212.3,76.2 208.8,76.2 208.8,89.8 206.9,89.8 	"/>
	<polygon class="st0" points="214.6,74.5 221.7,74.5 221.7,76.2 216.5,76.2 216.5,81.1 221.5,81.1 221.5,82.7 216.5,82.7 
		216.5,88.2 222,88.2 222,89.8 214.6,89.8 	"/>
	<polygon class="st0" points="224.9,74.5 227.3,74.5 233,87.2 233.1,87.2 233.1,74.5 234.9,74.5 234.9,89.8 232.5,89.8 226.8,77.3 
		226.7,77.3 226.7,89.8 224.9,89.8 	"/>
	<path class="st0" d="M238.2,74.5h3.3c2,0,3.2,0.5,4.1,1.1c1.4,0.9,2.8,2.9,2.8,6.3c0,4.4-2.1,7.9-7.9,7.9h-2.4V74.5z M240.2,88.2
		h1.2c3.4,0,5.1-2.3,5.1-6.2c0-3.2-1.4-5.8-5.1-5.8h-1.2V88.2z"/>
	<rect x="251.2" y="74.5" class="st0" width="1.9" height="15.3"/>
	<polygon class="st0" points="256.6,74.5 259.6,74.5 263.5,86.7 263.5,86.7 267.5,74.5 270.4,74.5 270.4,89.8 268.5,89.8 
		268.5,76.6 268.5,76.6 264.1,89.8 262.7,89.8 258.5,76.6 258.5,76.6 258.5,89.8 256.6,89.8 	"/>
	<polygon class="st0" points="273.9,74.5 281,74.5 281,76.2 275.8,76.2 275.8,81.1 280.8,81.1 280.8,82.7 275.8,82.7 275.8,88.2 
		281.3,88.2 281.3,89.8 273.9,89.8 	"/>
	<polygon class="st0" points="284.2,74.5 286.6,74.5 292.3,87.2 292.4,87.2 292.4,74.5 294.2,74.5 294.2,89.8 291.8,89.8 
		286.1,77.3 286,77.3 286,89.8 284.2,89.8 	"/>
	<polygon class="st0" points="300,76.2 296.5,76.2 296.5,74.5 305.4,74.5 305.4,76.2 301.9,76.2 301.9,89.8 300,89.8 	"/>
	<path class="st0" d="M311.8,74.4c3.4,0,5.6,2.9,5.6,7.7c0,5.3-2.1,8-5.8,8c-3.4,0-5.6-2.9-5.6-7.7C306,77,308.1,74.4,311.8,74.4
		 M311.6,88.4c2,0,3.7-1.7,3.7-6.4c0-3.1-1-6.1-3.6-6.1c-2,0-3.7,1.7-3.7,6.4C308,85.4,309,88.4,311.6,88.4"/>
</g>
</svg>
